<mxfile host="app.diagrams.net" modified="2023-02-05T10:02:05.307Z" agent="5.0 (Windows)" etag="fwQgVbZGyKcKp1Kgo2kt" version="20.8.10" type="github" pages="2">
  <diagram name="Page-1" id="SMPj46cA83t1GqJxbIgG">
    <mxGraphModel dx="1434" dy="4026" grid="1" gridSize="10" guides="1" tooltips="1" connect="1" arrows="1" fold="1" page="1" pageScale="1" pageWidth="2339" pageHeight="3300" math="0" shadow="0">
      <root>
        <mxCell id="0" />
        <mxCell id="1" parent="0" />
        <mxCell id="5SqYUnW2NIxosQ1aL64R-5" style="edgeStyle=orthogonalEdgeStyle;rounded=0;orthogonalLoop=1;jettySize=auto;html=1;entryX=0;entryY=0.5;entryDx=0;entryDy=0;" edge="1" parent="1" source="5SqYUnW2NIxosQ1aL64R-1" target="5SqYUnW2NIxosQ1aL64R-2">
          <mxGeometry relative="1" as="geometry" />
        </mxCell>
        <mxCell id="5SqYUnW2NIxosQ1aL64R-10" style="edgeStyle=orthogonalEdgeStyle;rounded=0;orthogonalLoop=1;jettySize=auto;html=1;entryX=1;entryY=0.5;entryDx=0;entryDy=0;" edge="1" parent="1" source="5SqYUnW2NIxosQ1aL64R-1" target="5SqYUnW2NIxosQ1aL64R-9">
          <mxGeometry relative="1" as="geometry" />
        </mxCell>
        <mxCell id="5SqYUnW2NIxosQ1aL64R-11" style="edgeStyle=orthogonalEdgeStyle;rounded=0;orthogonalLoop=1;jettySize=auto;html=1;" edge="1" parent="1" source="5SqYUnW2NIxosQ1aL64R-1" target="5SqYUnW2NIxosQ1aL64R-3">
          <mxGeometry relative="1" as="geometry" />
        </mxCell>
        <mxCell id="5SqYUnW2NIxosQ1aL64R-1" value="Old sis" style="rounded=0;whiteSpace=wrap;html=1;" vertex="1" parent="1">
          <mxGeometry x="300" y="290" width="230" height="160" as="geometry" />
        </mxCell>
        <mxCell id="5SqYUnW2NIxosQ1aL64R-6" style="edgeStyle=orthogonalEdgeStyle;rounded=0;orthogonalLoop=1;jettySize=auto;html=1;" edge="1" parent="1" source="5SqYUnW2NIxosQ1aL64R-2" target="5SqYUnW2NIxosQ1aL64R-4">
          <mxGeometry relative="1" as="geometry" />
        </mxCell>
        <mxCell id="5SqYUnW2NIxosQ1aL64R-8" style="edgeStyle=orthogonalEdgeStyle;rounded=0;orthogonalLoop=1;jettySize=auto;html=1;" edge="1" parent="1" source="5SqYUnW2NIxosQ1aL64R-2" target="5SqYUnW2NIxosQ1aL64R-1">
          <mxGeometry relative="1" as="geometry">
            <Array as="points">
              <mxPoint x="670" y="430" />
              <mxPoint x="670" y="430" />
            </Array>
          </mxGeometry>
        </mxCell>
        <mxCell id="5SqYUnW2NIxosQ1aL64R-2" value="Media" style="rounded=0;whiteSpace=wrap;html=1;" vertex="1" parent="1">
          <mxGeometry x="800" y="280" width="210" height="180" as="geometry" />
        </mxCell>
        <mxCell id="5SqYUnW2NIxosQ1aL64R-13" style="edgeStyle=orthogonalEdgeStyle;rounded=0;orthogonalLoop=1;jettySize=auto;html=1;entryX=0;entryY=0.5;entryDx=0;entryDy=0;" edge="1" parent="1" source="5SqYUnW2NIxosQ1aL64R-3" target="5SqYUnW2NIxosQ1aL64R-1">
          <mxGeometry relative="1" as="geometry">
            <Array as="points">
              <mxPoint x="200" y="100" />
              <mxPoint x="200" y="370" />
            </Array>
          </mxGeometry>
        </mxCell>
        <mxCell id="5SqYUnW2NIxosQ1aL64R-3" value="Old Files" style="rounded=1;whiteSpace=wrap;html=1;" vertex="1" parent="1">
          <mxGeometry x="355" y="70" width="120" height="60" as="geometry" />
        </mxCell>
        <mxCell id="5SqYUnW2NIxosQ1aL64R-7" style="edgeStyle=orthogonalEdgeStyle;rounded=0;orthogonalLoop=1;jettySize=auto;html=1;entryX=0.5;entryY=1;entryDx=0;entryDy=0;" edge="1" parent="1" source="5SqYUnW2NIxosQ1aL64R-4" target="5SqYUnW2NIxosQ1aL64R-2">
          <mxGeometry relative="1" as="geometry" />
        </mxCell>
        <mxCell id="5SqYUnW2NIxosQ1aL64R-4" value="AWS s3" style="rounded=1;whiteSpace=wrap;html=1;" vertex="1" parent="1">
          <mxGeometry x="1130" y="560" width="120" height="60" as="geometry" />
        </mxCell>
        <mxCell id="5SqYUnW2NIxosQ1aL64R-9" value="DB" style="rounded=0;whiteSpace=wrap;html=1;" vertex="1" parent="1">
          <mxGeometry x="270" y="550" width="120" height="60" as="geometry" />
        </mxCell>
        <mxCell id="5SqYUnW2NIxosQ1aL64R-14" value="File,location" style="text;html=1;align=center;verticalAlign=middle;resizable=0;points=[];autosize=1;strokeColor=none;fillColor=none;" vertex="1" parent="1">
          <mxGeometry x="615" y="340" width="90" height="30" as="geometry" />
        </mxCell>
        <mxCell id="5SqYUnW2NIxosQ1aL64R-15" value="File , location " style="text;html=1;align=center;verticalAlign=middle;resizable=0;points=[];autosize=1;strokeColor=none;fillColor=none;rotation=90;" vertex="1" parent="1">
          <mxGeometry x="390" y="190" width="100" height="30" as="geometry" />
        </mxCell>
        <mxCell id="5SqYUnW2NIxosQ1aL64R-16" value="ID as guid" style="text;html=1;align=center;verticalAlign=middle;resizable=0;points=[];autosize=1;strokeColor=none;fillColor=none;" vertex="1" parent="1">
          <mxGeometry x="625" y="400" width="80" height="30" as="geometry" />
        </mxCell>
        <mxCell id="5SqYUnW2NIxosQ1aL64R-17" value="Location as string" style="text;html=1;align=center;verticalAlign=middle;resizable=0;points=[];autosize=1;strokeColor=none;fillColor=none;" vertex="1" parent="1">
          <mxGeometry x="200" y="70" width="120" height="30" as="geometry" />
        </mxCell>
        <mxCell id="5SqYUnW2NIxosQ1aL64R-18" value="" style="rounded=1;whiteSpace=wrap;html=1;" vertex="1" parent="1">
          <mxGeometry x="330" y="-90" width="445" height="240" as="geometry" />
        </mxCell>
        <mxCell id="5SqYUnW2NIxosQ1aL64R-19" value="" style="rounded=1;whiteSpace=wrap;html=1;" vertex="1" parent="1">
          <mxGeometry x="730" y="200" width="560" height="430" as="geometry" />
        </mxCell>
      </root>
    </mxGraphModel>
  </diagram>
  <diagram id="kyNvdSG81lPKVntHv7uJ" name="Page-2">
    <mxGraphModel dx="1434" dy="726" grid="1" gridSize="10" guides="1" tooltips="1" connect="1" arrows="1" fold="1" page="1" pageScale="1" pageWidth="2339" pageHeight="3300" math="0" shadow="0">
      <root>
        <mxCell id="0" />
        <mxCell id="1" parent="0" />
        <mxCell id="LSd-kJDlQmRBv-7TF-GY-1" value="" style="rounded=1;whiteSpace=wrap;html=1;" vertex="1" parent="1">
          <mxGeometry x="670" y="340" width="120" height="60" as="geometry" />
        </mxCell>
      </root>
    </mxGraphModel>
  </diagram>
</mxfile>
